<mxfile host="app.diagrams.net" modified="2024-01-30T21:49:30.289Z" agent="Mozilla/5.0 (Macintosh; Intel Mac OS X 10_15_7) AppleWebKit/537.36 (KHTML, like Gecko) Chrome/120.0.0.0 Safari/537.36" version="23.0.0" etag="oe-3KkxAPzX7s5C4IZMW" type="github">
  <diagram name="Page-1" id="Nee233VI5h3raoB0SpvQ">
    <mxGraphModel>
      <root>
        <mxCell id="0" />
        <mxCell id="1" parent="0" />
      </root>
    </mxGraphModel>
  </diagram>
</mxfile>
